<mxfile host="Electron" modified="2023-09-12T08:36:38.027Z" agent="Mozilla/5.0 (Macintosh; Intel Mac OS X 10_15_7) AppleWebKit/537.36 (KHTML, like Gecko) draw.io/21.6.8 Chrome/114.0.5735.289 Electron/25.5.0 Safari/537.36" etag="77En2ZsNW7VFw-rNbjwC" version="21.6.8" type="device" pages="3">
  <diagram name="Medication - acute" id="5p_6NuA7Xo8cybLJyBj8">
    <mxGraphModel dx="1406" dy="1214" grid="1" gridSize="10" guides="1" tooltips="1" connect="1" arrows="1" fold="1" page="1" pageScale="1" pageWidth="827" pageHeight="1169" math="0" shadow="0">
      <root>
        <mxCell id="0" />
        <mxCell id="1" parent="0" />
        <mxCell id="Fasu6YIQ_YTlwEl46jSE-23" style="edgeStyle=orthogonalEdgeStyle;rounded=0;orthogonalLoop=1;jettySize=auto;html=1;strokeColor=#4672C4;strokeWidth=2;fontFamily=Verdana;" parent="1" source="5" target="11" edge="1">
          <mxGeometry relative="1" as="geometry" />
        </mxCell>
        <mxCell id="Fasu6YIQ_YTlwEl46jSE-26" style="edgeStyle=orthogonalEdgeStyle;rounded=0;orthogonalLoop=1;jettySize=auto;html=1;strokeColor=#4672C4;strokeWidth=2;fontFamily=Verdana;" parent="1" source="5" target="6" edge="1">
          <mxGeometry relative="1" as="geometry" />
        </mxCell>
        <mxCell id="5" value="&lt;font style=&quot;font-size: 11px; color: rgb(254, 255, 255); direction: ltr; letter-spacing: 0px; line-height: 120%; opacity: 1;&quot;&gt;Medication Statement&lt;br style=&quot;font-size: 11px;&quot;&gt;&lt;/font&gt;" style="verticalAlign=middle;align=center;vsdxID=1083;fillColor=#305497;gradientColor=none;shape=stencil(nZBLDoAgDERP0z3SIyjew0SURgSD+Lu9kMZoXLhwN9O+tukAlrNpJg1SzDH4QW/URgNYgZTkjA4UkwJUgGXng+6DX1zLfmoymdXo17xh5zmRJ6Q42BWCfc2oJfdAr+Yv+AP9Cb7OJ3H/2JG1HNGz/84klThPVCc=);strokeColor=#c8c8c8;spacingTop=-1;spacingBottom=-1;spacingLeft=-1;spacingRight=-1;labelBackgroundColor=none;rounded=0;html=1;whiteSpace=wrap;fontFamily=Verdana;fontSize=11;" parent="1" vertex="1">
          <mxGeometry x="520" y="240" width="120" height="60" as="geometry" />
        </mxCell>
        <mxCell id="Fasu6YIQ_YTlwEl46jSE-27" style="edgeStyle=orthogonalEdgeStyle;rounded=0;orthogonalLoop=1;jettySize=auto;html=1;strokeColor=#4672C4;strokeWidth=2;fontFamily=Verdana;" parent="1" source="6" target="11" edge="1">
          <mxGeometry relative="1" as="geometry" />
        </mxCell>
        <mxCell id="6" value="&lt;font style=&quot;font-size: 11px; color: rgb(254, 255, 255); direction: ltr; letter-spacing: 0px; line-height: 120%; opacity: 1;&quot;&gt;MedicationRequest&lt;br style=&quot;font-size: 11px;&quot;&gt;(Intent = Plan)&lt;br style=&quot;font-size: 11px;&quot;&gt;&lt;/font&gt;" style="verticalAlign=middle;align=center;vsdxID=1084;fillColor=#305497;gradientColor=none;shape=stencil(nZBLDoAgDERP0z3SIyjew0SURgSD+Lu9kMZoXLhwN9O+tukAlrNpJg1SzDH4QW/URgNYgZTkjA4UkwJUgGXng+6DX1zLfmoymdXo17xh5zmRJ6Q42BWCfc2oJfdAr+Yv+AP9Cb7OJ3H/2JG1HNGz/84klThPVCc=);strokeColor=#c8c8c8;spacingTop=-1;spacingBottom=-1;spacingLeft=-1;spacingRight=-1;labelBackgroundColor=none;rounded=0;html=1;whiteSpace=wrap;fontFamily=Verdana;fontSize=11;" parent="1" vertex="1">
          <mxGeometry x="280" y="380" width="120" height="60" as="geometry" />
        </mxCell>
        <mxCell id="Fasu6YIQ_YTlwEl46jSE-25" style="edgeStyle=orthogonalEdgeStyle;rounded=0;orthogonalLoop=1;jettySize=auto;html=1;entryX=0.508;entryY=1;entryDx=0;entryDy=0;entryPerimeter=0;strokeColor=#4672C4;strokeWidth=2;fontFamily=Verdana;" parent="1" source="7" target="11" edge="1">
          <mxGeometry relative="1" as="geometry" />
        </mxCell>
        <mxCell id="Fasu6YIQ_YTlwEl46jSE-28" style="edgeStyle=orthogonalEdgeStyle;rounded=0;orthogonalLoop=1;jettySize=auto;html=1;strokeColor=#4672C4;strokeWidth=2;fontFamily=Verdana;" parent="1" source="7" target="6" edge="1">
          <mxGeometry relative="1" as="geometry" />
        </mxCell>
        <mxCell id="7" value="&lt;font style=&quot;font-size: 11px; color: rgb(254, 255, 255); direction: ltr; letter-spacing: 0px; line-height: 120%; opacity: 1;&quot;&gt;MedicationRequest&lt;br style=&quot;font-size: 11px;&quot;&gt;(Intent = Order)&lt;br style=&quot;font-size: 11px;&quot;&gt;&lt;/font&gt;" style="verticalAlign=middle;align=center;vsdxID=1085;fillColor=#305497;gradientColor=none;shape=stencil(nZBLDoAgDERP0z3SIyjew0SURgSD+Lu9kMZoXLhwN9O+tukAlrNpJg1SzDH4QW/URgNYgZTkjA4UkwJUgGXng+6DX1zLfmoymdXo17xh5zmRJ6Q42BWCfc2oJfdAr+Yv+AP9Cb7OJ3H/2JG1HNGz/84klThPVCc=);strokeColor=#c8c8c8;spacingTop=-1;spacingBottom=-1;spacingLeft=-1;spacingRight=-1;labelBackgroundColor=none;rounded=0;html=1;whiteSpace=wrap;fontFamily=Verdana;fontSize=11;" parent="1" vertex="1">
          <mxGeometry x="280" y="520" width="120" height="60" as="geometry" />
        </mxCell>
        <mxCell id="11" value="&lt;font style=&quot;font-size: 11px; color: rgb(254, 255, 255); direction: ltr; letter-spacing: 0px; line-height: 120%; opacity: 1;&quot;&gt;Medication&lt;br style=&quot;font-size: 11px;&quot;&gt;&lt;/font&gt;" style="verticalAlign=middle;align=center;vsdxID=1089;fillColor=#305497;gradientColor=none;shape=stencil(nZBLDoAgDERP0z3SIyjew0SURgSD+Lu9kMZoXLhwN9O+tukAlrNpJg1SzDH4QW/URgNYgZTkjA4UkwJUgGXng+6DX1zLfmoymdXo17xh5zmRJ6Q42BWCfc2oJfdAr+Yv+AP9Cb7OJ3H/2JG1HNGz/84klThPVCc=);strokeColor=#c8c8c8;spacingTop=-1;spacingBottom=-1;spacingLeft=-1;spacingRight=-1;labelBackgroundColor=none;rounded=0;html=1;whiteSpace=wrap;fontFamily=Verdana;fontSize=11;" parent="1" vertex="1">
          <mxGeometry x="520" y="380" width="120" height="60" as="geometry" />
        </mxCell>
        <mxCell id="2" value="Connector" parent="0" />
        <mxCell id="8" style="vsdxID=1086;fillColor=none;gradientColor=none;shape=stencil(nY9LDoAgDERP0z3SI/i5B4koRAWC+Lu9NI3xs3Q3075ppoDlbFTQIMWcoh/0ZttkACuQ0jqjo01ZAdaAZeej7qNfXMs+KCJJTX6lCzvnBCWkONgVgn3D6GjdA72Wv+AXmsXdh1957r7d84j/xvoE);strokeColor=#5488eb;strokeWidth=2;labelBackgroundColor=#ffffff;rounded=0;html=1;whiteSpace=wrap;fontFamily=Verdana;" parent="2" vertex="1">
          <mxGeometry x="520" y="380" width="-180" height="-110" as="geometry" />
        </mxCell>
        <mxCell id="9" value="&lt;font style=&quot;font-size: 11px; color: rgb(70, 114, 196); direction: ltr; letter-spacing: 0px; line-height: 120%; opacity: 1;&quot;&gt;1&lt;/font&gt;&lt;font style=&quot;font-size: 11px; color: rgb(70, 114, 196); direction: ltr; letter-spacing: 0px; line-height: 120%; opacity: 1;&quot;&gt;..&lt;/font&gt;&lt;font style=&quot;font-size: 11px; color: rgb(70, 114, 196); direction: ltr; letter-spacing: 0px; line-height: 120%; opacity: 1;&quot;&gt;1&lt;br&gt;&lt;/font&gt;" style="verticalAlign=middle;align=center;vsdxID=1087;fillColor=none;gradientColor=none;strokeColor=none;spacingTop=-3;spacingBottom=-3;spacingLeft=-3;spacingRight=-3;labelBackgroundColor=none;rounded=0;html=1;whiteSpace=wrap;fontFamily=Verdana;" parent="8" vertex="1">
          <mxGeometry x="-32" y="-103" width="19" height="13" as="geometry" />
        </mxCell>
        <mxCell id="10" value="&lt;font style=&quot;font-size: 11px; color: rgb(70, 114, 196); direction: ltr; letter-spacing: 0px; line-height: 120%; opacity: 1;&quot;&gt;1&lt;/font&gt;&lt;font style=&quot;font-size: 11px; color: rgb(70, 114, 196); direction: ltr; letter-spacing: 0px; line-height: 120%; opacity: 1;&quot;&gt;..&lt;/font&gt;&lt;font style=&quot;font-size: 11px; color: rgb(70, 114, 196); direction: ltr; letter-spacing: 0px; line-height: 120%; opacity: 1;&quot;&gt;1&lt;br&gt;&lt;/font&gt;" style="verticalAlign=middle;align=center;vsdxID=1088;fillColor=none;gradientColor=none;strokeColor=none;spacingTop=-3;spacingBottom=-3;spacingLeft=-3;spacingRight=-3;labelBackgroundColor=none;rounded=0;html=1;whiteSpace=wrap;fontFamily=Verdana;" parent="8" vertex="1">
          <mxGeometry x="-170" y="-32" width="19" height="13" as="geometry" />
        </mxCell>
        <mxCell id="12" style="vsdxID=1090;fillColor=none;gradientColor=none;shape=stencil(fY9LDoAgDERP0z3SI/i5BwkoRAWC+Lu9kMZojLqbad9MWsBy0sIr4GyKwfVqNTJqwAo4N1arYGJSgDVg2bqguuBmK8l7kcmsRrfkho1yLCc428kVjHxD6GDsJ/oDni2vaBLXLfTGffe8O43oZ6wP);strokeColor=#5488eb;strokeWidth=2;labelBackgroundColor=#ffffff;rounded=0;html=1;whiteSpace=wrap;fontFamily=Verdana;" parent="2" vertex="1">
          <mxGeometry x="580" y="559" width="-180" height="-120" as="geometry" />
        </mxCell>
        <mxCell id="13" value="&lt;font style=&quot;font-size: 11px; color: rgb(70, 114, 196); direction: ltr; letter-spacing: 0px; line-height: 120%; opacity: 1;&quot;&gt;1&lt;/font&gt;&lt;font style=&quot;font-size: 11px; color: rgb(70, 114, 196); direction: ltr; letter-spacing: 0px; line-height: 120%; opacity: 1;&quot;&gt;..&lt;/font&gt;&lt;font style=&quot;font-size: 11px; color: rgb(70, 114, 196); direction: ltr; letter-spacing: 0px; line-height: 120%; opacity: 1;&quot;&gt;1&lt;br&gt;&lt;/font&gt;" style="verticalAlign=middle;align=center;vsdxID=1091;fillColor=none;gradientColor=none;strokeColor=none;spacingTop=-3;spacingBottom=-3;spacingLeft=-3;spacingRight=-3;labelBackgroundColor=none;rounded=0;html=1;whiteSpace=wrap;fontFamily=Verdana;" parent="12" vertex="1">
          <mxGeometry x="9" y="-101" width="19" height="13" as="geometry" />
        </mxCell>
        <mxCell id="14" value="&lt;font style=&quot;font-size: 11px; color: rgb(70, 114, 196); direction: ltr; letter-spacing: 0px; line-height: 120%; opacity: 1;&quot;&gt;1..1&lt;br&gt;&lt;/font&gt;" style="verticalAlign=middle;align=center;vsdxID=1092;fillColor=none;gradientColor=none;strokeColor=none;spacingTop=-3;spacingBottom=-3;spacingLeft=-3;spacingRight=-3;labelBackgroundColor=none;rounded=0;html=1;whiteSpace=wrap;fontFamily=Verdana;" parent="12" vertex="1">
          <mxGeometry x="-170" y="-32" width="19" height="13" as="geometry" />
        </mxCell>
        <mxCell id="15" style="vsdxID=1093;fillColor=none;gradientColor=none;shape=stencil(fY9LDoAgDERP0z3SeALFe5iI0qhAEH+3F9KFxIW7mfa1nQI2m+m9Bim2GNysTxqiAWxBSrJGB4pJASrAZnRBT8HtdmDv+0xmtbojb7h4TuQJKW52NduOyYVsQVbij03iPcHpyt43TirxK6ge);strokeColor=#5488eb;strokeWidth=2;labelBackgroundColor=#FFFFFF;rounded=0;html=1;whiteSpace=wrap;fontFamily=Verdana;" parent="2" vertex="1">
          <mxGeometry x="516" y="396" width="-120" height="20" as="geometry" />
        </mxCell>
        <mxCell id="16" value="&lt;font style=&quot;font-size: 11px; color: rgb(61, 100, 172); direction: ltr; letter-spacing: 0px; line-height: 120%; opacity: 1;&quot;&gt;1&lt;/font&gt;&lt;font style=&quot;font-size: 11px; color: rgb(61, 100, 172); direction: ltr; letter-spacing: 0px; line-height: 120%; opacity: 1;&quot;&gt;..1&lt;br&gt;&lt;/font&gt;" style="verticalAlign=middle;align=center;vsdxID=1094;fillColor=none;gradientColor=none;strokeColor=none;labelBackgroundColor=#FFFFFF;rounded=0;html=1;whiteSpace=wrap;fontFamily=Verdana;" parent="15" vertex="1">
          <mxGeometry x="-35" y="14" width="30" height="24" as="geometry" />
        </mxCell>
        <mxCell id="17" value="&lt;font style=&quot;font-size: 11px; color: rgb(61, 100, 172); direction: ltr; letter-spacing: 0px; line-height: 120%; opacity: 1;&quot;&gt;1..1&lt;/font&gt;&lt;font style=&quot;font-size: 11px; color: rgb(61, 100, 172); direction: ltr; letter-spacing: 0px; line-height: 120%; opacity: 1;&quot;&gt;&lt;br&gt;&lt;/font&gt;" style="verticalAlign=middle;align=center;vsdxID=1095;fillColor=none;gradientColor=none;strokeColor=none;labelBackgroundColor=#FFFFFF;rounded=0;html=1;whiteSpace=wrap;fontFamily=Verdana;" parent="15" vertex="1">
          <mxGeometry x="-108" y="-13" width="30" height="24" as="geometry" />
        </mxCell>
        <mxCell id="18" style="vsdxID=1100;fillColor=none;gradientColor=none;shape=stencil(dY9JDoAgDEVP0z3SeAKHe5CI0qhAEKfbC+nCIXH3f/va/gJWi1FegxRLDG7UO3XRANYgJVmjA8WkABvAqndBD8GttmPvVSazmt2WNxw8V4o8IsXJthDsW2Ynsv/si0ziPsHpnr1vnFTiV7C5AA==);strokeColor=#5488eb;strokeWidth=2;labelBackgroundColor=#ffffff;rounded=0;html=1;whiteSpace=wrap;fontFamily=Verdana;" parent="2" vertex="1">
          <mxGeometry x="330" y="520" width="20" height="-80" as="geometry" />
        </mxCell>
        <mxCell id="19" value="&lt;font style=&quot;font-size: 11px; color: rgb(70, 114, 196); direction: ltr; letter-spacing: 0px; line-height: 120%; opacity: 1;&quot;&gt;1&lt;/font&gt;&lt;font style=&quot;font-size: 11px; color: rgb(70, 114, 196); direction: ltr; letter-spacing: 0px; line-height: 120%; opacity: 1;&quot;&gt;..1&lt;/font&gt;&lt;font style=&quot;font-size: 11px; color: rgb(70, 114, 196); direction: ltr; letter-spacing: 0px; line-height: 120%; opacity: 1;&quot;&gt;&lt;br&gt;&lt;/font&gt;" style="verticalAlign=middle;align=center;vsdxID=1101;fillColor=none;gradientColor=none;strokeColor=none;spacingTop=-3;spacingBottom=-3;spacingLeft=-3;spacingRight=-3;labelBackgroundColor=none;rounded=0;html=1;whiteSpace=wrap;fontFamily=Verdana;" parent="18" vertex="1">
          <mxGeometry x="18" y="-69" width="19" height="13" as="geometry" />
        </mxCell>
        <mxCell id="20" value="&lt;font style=&quot;font-size: 11px; color: rgb(70, 114, 196); direction: ltr; letter-spacing: 0px; line-height: 120%; opacity: 1;&quot;&gt;1&lt;/font&gt;&lt;font style=&quot;font-size: 11px; color: rgb(70, 114, 196); direction: ltr; letter-spacing: 0px; line-height: 120%; opacity: 1;&quot;&gt;..&lt;/font&gt;&lt;font style=&quot;font-size: 11px; color: rgb(70, 114, 196); direction: ltr; letter-spacing: 0px; line-height: 120%; opacity: 1;&quot;&gt;1&lt;br&gt;&lt;/font&gt;" style="verticalAlign=middle;align=center;vsdxID=1102;fillColor=none;gradientColor=none;strokeColor=none;spacingTop=-3;spacingBottom=-3;spacingLeft=-3;spacingRight=-3;labelBackgroundColor=none;rounded=0;html=1;whiteSpace=wrap;fontFamily=Verdana;" parent="18" vertex="1">
          <mxGeometry x="-17" y="-20" width="19" height="13" as="geometry" />
        </mxCell>
        <mxCell id="21" style="vsdxID=1189;fillColor=none;gradientColor=none;shape=stencil(dY9JDoAgDEVP0z3SeAKHe5CI0qhAEKfbC+nCIXH3f/va/gJWi1FegxRLDG7UO3XRANYgJVmjA8WkABvAqndBD8GttmPvVSazmt2WNxw8V4o8IsXJthDsW2Ynsv/si0ziPsHpnr1vnFTiV7C5AA==);strokeColor=#5488eb;strokeWidth=2;labelBackgroundColor=#FFFFFF;rounded=0;html=1;whiteSpace=wrap;fontFamily=Verdana;" parent="2" vertex="1">
          <mxGeometry x="590" y="300" width="-20" height="80" as="geometry" />
        </mxCell>
        <mxCell id="22" value="&lt;font style=&quot;font-size: 11px; color: rgb(61, 100, 172); direction: ltr; letter-spacing: 0px; line-height: 120%; opacity: 1;&quot;&gt;1&lt;/font&gt;&lt;font style=&quot;font-size: 11px; color: rgb(61, 100, 172); direction: ltr; letter-spacing: 0px; line-height: 120%; opacity: 1;&quot;&gt;..1&lt;br&gt;&lt;/font&gt;" style="verticalAlign=middle;align=center;vsdxID=1190;fillColor=none;gradientColor=none;strokeColor=none;labelBackgroundColor=#FFFFFF;rounded=0;html=1;whiteSpace=wrap;fontFamily=Verdana;" parent="21" vertex="1">
          <mxGeometry x="-47" y="43" width="30" height="24" as="geometry" />
        </mxCell>
        <mxCell id="23" value="&lt;font style=&quot;font-size: 11px; color: rgb(61, 100, 172); direction: ltr; letter-spacing: 0px; line-height: 120%; opacity: 1;&quot;&gt;1..1&lt;/font&gt;&lt;font style=&quot;font-size: 11px; color: rgb(61, 100, 172); direction: ltr; letter-spacing: 0px; line-height: 120%; opacity: 1;&quot;&gt;&lt;br&gt;&lt;/font&gt;" style="verticalAlign=middle;align=center;vsdxID=1191;fillColor=none;gradientColor=none;strokeColor=none;labelBackgroundColor=#FFFFFF;rounded=0;html=1;whiteSpace=wrap;fontFamily=Verdana;" parent="21" vertex="1">
          <mxGeometry x="-3" width="30" height="24" as="geometry" />
        </mxCell>
        <mxCell id="3" value="Annotations" parent="0" />
        <mxCell id="4" value="Relationships" parent="0" />
      </root>
    </mxGraphModel>
  </diagram>
  <diagram name="Medication - repeat" id="_2e-x1G7oihsgmBjrwap">
    <mxGraphModel dx="1406" dy="1214" grid="1" gridSize="10" guides="1" tooltips="1" connect="1" arrows="1" fold="1" page="1" pageScale="1" pageWidth="827" pageHeight="1169" math="0" shadow="0">
      <root>
        <mxCell id="0" />
        <mxCell id="1" parent="0" />
        <mxCell id="2MMG_qWxhIuf3SQ8Fz9g-4" style="edgeStyle=orthogonalEdgeStyle;rounded=0;orthogonalLoop=1;jettySize=auto;html=1;strokeColor=#4672C4;strokeWidth=2;fontFamily=Verdana;" parent="1" source="2MMG_qWxhIuf3SQ8Fz9g-6" target="2MMG_qWxhIuf3SQ8Fz9g-12" edge="1">
          <mxGeometry relative="1" as="geometry" />
        </mxCell>
        <mxCell id="2MMG_qWxhIuf3SQ8Fz9g-5" style="edgeStyle=orthogonalEdgeStyle;rounded=0;orthogonalLoop=1;jettySize=auto;html=1;strokeColor=#4672C4;strokeWidth=2;fontFamily=Verdana;" parent="1" source="2MMG_qWxhIuf3SQ8Fz9g-6" target="2MMG_qWxhIuf3SQ8Fz9g-8" edge="1">
          <mxGeometry relative="1" as="geometry" />
        </mxCell>
        <mxCell id="2MMG_qWxhIuf3SQ8Fz9g-6" value="&lt;font style=&quot;font-size: 11px; color: rgb(254, 255, 255); direction: ltr; letter-spacing: 0px; line-height: 120%; opacity: 1;&quot;&gt;Medication Statement&lt;br style=&quot;font-size: 11px;&quot;&gt;&lt;/font&gt;" style="verticalAlign=middle;align=center;vsdxID=1083;fillColor=#305497;gradientColor=none;shape=stencil(nZBLDoAgDERP0z3SIyjew0SURgSD+Lu9kMZoXLhwN9O+tukAlrNpJg1SzDH4QW/URgNYgZTkjA4UkwJUgGXng+6DX1zLfmoymdXo17xh5zmRJ6Q42BWCfc2oJfdAr+Yv+AP9Cb7OJ3H/2JG1HNGz/84klThPVCc=);strokeColor=#c8c8c8;spacingTop=-1;spacingBottom=-1;spacingLeft=-1;spacingRight=-1;labelBackgroundColor=none;rounded=0;html=1;whiteSpace=wrap;fontFamily=Verdana;fontSize=11;" parent="1" vertex="1">
          <mxGeometry x="540" y="230" width="120" height="60" as="geometry" />
        </mxCell>
        <mxCell id="2MMG_qWxhIuf3SQ8Fz9g-7" style="edgeStyle=orthogonalEdgeStyle;rounded=0;orthogonalLoop=1;jettySize=auto;html=1;strokeColor=#4672C4;strokeWidth=2;fontFamily=Verdana;" parent="1" source="2MMG_qWxhIuf3SQ8Fz9g-8" target="2MMG_qWxhIuf3SQ8Fz9g-12" edge="1">
          <mxGeometry relative="1" as="geometry" />
        </mxCell>
        <mxCell id="2MMG_qWxhIuf3SQ8Fz9g-8" value="&lt;font style=&quot;font-size: 11px; color: rgb(254, 255, 255); direction: ltr; letter-spacing: 0px; line-height: 120%; opacity: 1;&quot;&gt;MedicationRequest&lt;br style=&quot;font-size: 11px;&quot;&gt;(Intent = Plan)&lt;br style=&quot;font-size: 11px;&quot;&gt;&lt;/font&gt;" style="verticalAlign=middle;align=center;vsdxID=1084;fillColor=#305497;gradientColor=none;shape=stencil(nZBLDoAgDERP0z3SIyjew0SURgSD+Lu9kMZoXLhwN9O+tukAlrNpJg1SzDH4QW/URgNYgZTkjA4UkwJUgGXng+6DX1zLfmoymdXo17xh5zmRJ6Q42BWCfc2oJfdAr+Yv+AP9Cb7OJ3H/2JG1HNGz/84klThPVCc=);strokeColor=#c8c8c8;spacingTop=-1;spacingBottom=-1;spacingLeft=-1;spacingRight=-1;labelBackgroundColor=none;rounded=0;html=1;whiteSpace=wrap;fontFamily=Verdana;fontSize=11;" parent="1" vertex="1">
          <mxGeometry x="300" y="370" width="120" height="60" as="geometry" />
        </mxCell>
        <mxCell id="2MMG_qWxhIuf3SQ8Fz9g-9" style="edgeStyle=orthogonalEdgeStyle;rounded=0;orthogonalLoop=1;jettySize=auto;html=1;entryX=0.508;entryY=1;entryDx=0;entryDy=0;entryPerimeter=0;strokeColor=#4672C4;strokeWidth=2;fontFamily=Verdana;" parent="1" source="2MMG_qWxhIuf3SQ8Fz9g-11" target="2MMG_qWxhIuf3SQ8Fz9g-12" edge="1">
          <mxGeometry relative="1" as="geometry" />
        </mxCell>
        <mxCell id="2MMG_qWxhIuf3SQ8Fz9g-10" style="edgeStyle=orthogonalEdgeStyle;rounded=0;orthogonalLoop=1;jettySize=auto;html=1;strokeColor=#4672C4;strokeWidth=2;fontFamily=Verdana;" parent="1" source="2MMG_qWxhIuf3SQ8Fz9g-11" target="2MMG_qWxhIuf3SQ8Fz9g-8" edge="1">
          <mxGeometry relative="1" as="geometry" />
        </mxCell>
        <mxCell id="2MMG_qWxhIuf3SQ8Fz9g-11" value="&lt;font style=&quot;font-size: 11px; color: rgb(254, 255, 255); direction: ltr; letter-spacing: 0px; line-height: 120%; opacity: 1;&quot;&gt;MedicationRequest&lt;br style=&quot;font-size: 11px;&quot;&gt;(Intent = Order)&lt;br style=&quot;font-size: 11px;&quot;&gt;&lt;/font&gt;" style="verticalAlign=middle;align=center;vsdxID=1085;fillColor=#305497;gradientColor=none;shape=stencil(nZBLDoAgDERP0z3SIyjew0SURgSD+Lu9kMZoXLhwN9O+tukAlrNpJg1SzDH4QW/URgNYgZTkjA4UkwJUgGXng+6DX1zLfmoymdXo17xh5zmRJ6Q42BWCfc2oJfdAr+Yv+AP9Cb7OJ3H/2JG1HNGz/84klThPVCc=);strokeColor=#c8c8c8;spacingTop=-1;spacingBottom=-1;spacingLeft=-1;spacingRight=-1;labelBackgroundColor=none;rounded=0;html=1;whiteSpace=wrap;fontFamily=Verdana;fontSize=11;" parent="1" vertex="1">
          <mxGeometry x="300" y="510" width="120" height="60" as="geometry" />
        </mxCell>
        <mxCell id="2MMG_qWxhIuf3SQ8Fz9g-12" value="&lt;font style=&quot;font-size: 11px; color: rgb(254, 255, 255); direction: ltr; letter-spacing: 0px; line-height: 120%; opacity: 1;&quot;&gt;Medication&lt;br style=&quot;font-size: 11px;&quot;&gt;&lt;/font&gt;" style="verticalAlign=middle;align=center;vsdxID=1089;fillColor=#305497;gradientColor=none;shape=stencil(nZBLDoAgDERP0z3SIyjew0SURgSD+Lu9kMZoXLhwN9O+tukAlrNpJg1SzDH4QW/URgNYgZTkjA4UkwJUgGXng+6DX1zLfmoymdXo17xh5zmRJ6Q42BWCfc2oJfdAr+Yv+AP9Cb7OJ3H/2JG1HNGz/84klThPVCc=);strokeColor=#c8c8c8;spacingTop=-1;spacingBottom=-1;spacingLeft=-1;spacingRight=-1;labelBackgroundColor=none;rounded=0;html=1;whiteSpace=wrap;fontFamily=Verdana;fontSize=11;" parent="1" vertex="1">
          <mxGeometry x="540" y="370" width="120" height="60" as="geometry" />
        </mxCell>
        <mxCell id="2MMG_qWxhIuf3SQ8Fz9g-13" style="vsdxID=1086;fillColor=none;gradientColor=none;shape=stencil(nY9LDoAgDERP0z3SI/i5B4koRAWC+Lu9NI3xs3Q3075ppoDlbFTQIMWcoh/0ZttkACuQ0jqjo01ZAdaAZeej7qNfXMs+KCJJTX6lCzvnBCWkONgVgn3D6GjdA72Wv+AXmsXdh1957r7d84j/xvoE);strokeColor=#5488eb;strokeWidth=2;labelBackgroundColor=#ffffff;rounded=0;html=1;whiteSpace=wrap;fontFamily=Verdana;" parent="1" vertex="1">
          <mxGeometry x="540" y="370" width="-180" height="-110" as="geometry" />
        </mxCell>
        <mxCell id="2MMG_qWxhIuf3SQ8Fz9g-14" value="&lt;font style=&quot;font-size: 11px; color: rgb(70, 114, 196); direction: ltr; letter-spacing: 0px; line-height: 120%; opacity: 1;&quot;&gt;1&lt;/font&gt;&lt;font style=&quot;font-size: 11px; color: rgb(70, 114, 196); direction: ltr; letter-spacing: 0px; line-height: 120%; opacity: 1;&quot;&gt;..&lt;/font&gt;&lt;font style=&quot;font-size: 11px; color: rgb(70, 114, 196); direction: ltr; letter-spacing: 0px; line-height: 120%; opacity: 1;&quot;&gt;1&lt;br&gt;&lt;/font&gt;" style="verticalAlign=middle;align=center;vsdxID=1087;fillColor=none;gradientColor=none;strokeColor=none;spacingTop=-3;spacingBottom=-3;spacingLeft=-3;spacingRight=-3;labelBackgroundColor=none;rounded=0;html=1;whiteSpace=wrap;fontFamily=Verdana;" parent="2MMG_qWxhIuf3SQ8Fz9g-13" vertex="1">
          <mxGeometry x="-32" y="-103" width="19" height="13" as="geometry" />
        </mxCell>
        <mxCell id="2MMG_qWxhIuf3SQ8Fz9g-15" value="&lt;font style=&quot;font-size: 11px; color: rgb(70, 114, 196); direction: ltr; letter-spacing: 0px; line-height: 120%; opacity: 1;&quot;&gt;1&lt;/font&gt;&lt;font style=&quot;font-size: 11px; color: rgb(70, 114, 196); direction: ltr; letter-spacing: 0px; line-height: 120%; opacity: 1;&quot;&gt;..&lt;/font&gt;&lt;font style=&quot;font-size: 11px; color: rgb(70, 114, 196); direction: ltr; letter-spacing: 0px; line-height: 120%; opacity: 1;&quot;&gt;1&lt;br&gt;&lt;/font&gt;" style="verticalAlign=middle;align=center;vsdxID=1088;fillColor=none;gradientColor=none;strokeColor=none;spacingTop=-3;spacingBottom=-3;spacingLeft=-3;spacingRight=-3;labelBackgroundColor=none;rounded=0;html=1;whiteSpace=wrap;fontFamily=Verdana;" parent="2MMG_qWxhIuf3SQ8Fz9g-13" vertex="1">
          <mxGeometry x="-170" y="-32" width="19" height="13" as="geometry" />
        </mxCell>
        <mxCell id="2MMG_qWxhIuf3SQ8Fz9g-16" style="vsdxID=1090;fillColor=none;gradientColor=none;shape=stencil(fY9LDoAgDERP0z3SI/i5BwkoRAWC+Lu9kMZojLqbad9MWsBy0sIr4GyKwfVqNTJqwAo4N1arYGJSgDVg2bqguuBmK8l7kcmsRrfkho1yLCc428kVjHxD6GDsJ/oDni2vaBLXLfTGffe8O43oZ6wP);strokeColor=#5488eb;strokeWidth=2;labelBackgroundColor=#ffffff;rounded=0;html=1;whiteSpace=wrap;container=0;fontFamily=Verdana;" parent="1" vertex="1">
          <mxGeometry x="600" y="549" width="-180" height="-120" as="geometry" />
        </mxCell>
        <mxCell id="2MMG_qWxhIuf3SQ8Fz9g-19" style="vsdxID=1093;fillColor=none;gradientColor=none;shape=stencil(fY9LDoAgDERP0z3SeALFe5iI0qhAEH+3F9KFxIW7mfa1nQI2m+m9Bim2GNysTxqiAWxBSrJGB4pJASrAZnRBT8HtdmDv+0xmtbojb7h4TuQJKW52NduOyYVsQVbij03iPcHpyt43TirxK6ge);strokeColor=#5488eb;strokeWidth=2;labelBackgroundColor=#FFFFFF;rounded=0;html=1;whiteSpace=wrap;fontFamily=Verdana;" parent="1" vertex="1">
          <mxGeometry x="536" y="386" width="-120" height="20" as="geometry" />
        </mxCell>
        <mxCell id="2MMG_qWxhIuf3SQ8Fz9g-20" value="&lt;font style=&quot;font-size: 11px; color: rgb(61, 100, 172); direction: ltr; letter-spacing: 0px; line-height: 120%; opacity: 1;&quot;&gt;1&lt;/font&gt;&lt;font style=&quot;font-size: 11px; color: rgb(61, 100, 172); direction: ltr; letter-spacing: 0px; line-height: 120%; opacity: 1;&quot;&gt;..1&lt;br&gt;&lt;/font&gt;" style="verticalAlign=middle;align=center;vsdxID=1094;fillColor=none;gradientColor=none;strokeColor=none;labelBackgroundColor=#FFFFFF;rounded=0;html=1;whiteSpace=wrap;fontFamily=Verdana;" parent="2MMG_qWxhIuf3SQ8Fz9g-19" vertex="1">
          <mxGeometry x="-35" y="14" width="30" height="24" as="geometry" />
        </mxCell>
        <mxCell id="2MMG_qWxhIuf3SQ8Fz9g-21" value="&lt;font style=&quot;font-size: 11px; color: rgb(61, 100, 172); direction: ltr; letter-spacing: 0px; line-height: 120%; opacity: 1;&quot;&gt;1..1&lt;/font&gt;&lt;font style=&quot;font-size: 11px; color: rgb(61, 100, 172); direction: ltr; letter-spacing: 0px; line-height: 120%; opacity: 1;&quot;&gt;&lt;br&gt;&lt;/font&gt;" style="verticalAlign=middle;align=center;vsdxID=1095;fillColor=none;gradientColor=none;strokeColor=none;labelBackgroundColor=#FFFFFF;rounded=0;html=1;whiteSpace=wrap;fontFamily=Verdana;" parent="2MMG_qWxhIuf3SQ8Fz9g-19" vertex="1">
          <mxGeometry x="-108" y="-13" width="30" height="24" as="geometry" />
        </mxCell>
        <mxCell id="2MMG_qWxhIuf3SQ8Fz9g-22" style="vsdxID=1100;fillColor=none;gradientColor=none;shape=stencil(dY9JDoAgDEVP0z3SeAKHe5CI0qhAEKfbC+nCIXH3f/va/gJWi1FegxRLDG7UO3XRANYgJVmjA8WkABvAqndBD8GttmPvVSazmt2WNxw8V4o8IsXJthDsW2Ynsv/si0ziPsHpnr1vnFTiV7C5AA==);strokeColor=#5488eb;strokeWidth=2;labelBackgroundColor=#ffffff;rounded=0;html=1;whiteSpace=wrap;fontFamily=Verdana;" parent="1" vertex="1">
          <mxGeometry x="350" y="510" width="20" height="-80" as="geometry" />
        </mxCell>
        <mxCell id="2MMG_qWxhIuf3SQ8Fz9g-23" value="&lt;font style=&quot;font-size: 11px; color: rgb(70, 114, 196); direction: ltr; letter-spacing: 0px; line-height: 120%; opacity: 1;&quot;&gt;1&lt;/font&gt;&lt;font style=&quot;font-size: 11px; color: rgb(70, 114, 196); direction: ltr; letter-spacing: 0px; line-height: 120%; opacity: 1;&quot;&gt;..1&lt;/font&gt;&lt;font style=&quot;font-size: 11px; color: rgb(70, 114, 196); direction: ltr; letter-spacing: 0px; line-height: 120%; opacity: 1;&quot;&gt;&lt;br&gt;&lt;/font&gt;" style="verticalAlign=middle;align=center;vsdxID=1101;fillColor=none;gradientColor=none;strokeColor=none;spacingTop=-3;spacingBottom=-3;spacingLeft=-3;spacingRight=-3;labelBackgroundColor=none;rounded=0;html=1;whiteSpace=wrap;fontFamily=Verdana;" parent="2MMG_qWxhIuf3SQ8Fz9g-22" vertex="1">
          <mxGeometry x="18" y="-69" width="19" height="13" as="geometry" />
        </mxCell>
        <mxCell id="2MMG_qWxhIuf3SQ8Fz9g-24" value="&lt;font style=&quot;font-size: 11px; color: rgb(70, 114, 196); direction: ltr; letter-spacing: 0px; line-height: 120%; opacity: 1;&quot;&gt;1&lt;/font&gt;&lt;font style=&quot;font-size: 11px; color: rgb(70, 114, 196); direction: ltr; letter-spacing: 0px; line-height: 120%; opacity: 1;&quot;&gt;..*&lt;/font&gt;&lt;font style=&quot;font-size: 11px; color: rgb(70, 114, 196); direction: ltr; letter-spacing: 0px; line-height: 120%; opacity: 1;&quot;&gt;&lt;br&gt;&lt;/font&gt;" style="verticalAlign=middle;align=center;vsdxID=1102;fillColor=none;gradientColor=none;strokeColor=none;spacingTop=-3;spacingBottom=-3;spacingLeft=-3;spacingRight=-3;labelBackgroundColor=none;rounded=0;html=1;whiteSpace=wrap;fontFamily=Verdana;" parent="2MMG_qWxhIuf3SQ8Fz9g-22" vertex="1">
          <mxGeometry x="-17" y="-20" width="19" height="13" as="geometry" />
        </mxCell>
        <mxCell id="2MMG_qWxhIuf3SQ8Fz9g-25" style="vsdxID=1189;fillColor=none;gradientColor=none;shape=stencil(dY9JDoAgDEVP0z3SeAKHe5CI0qhAEKfbC+nCIXH3f/va/gJWi1FegxRLDG7UO3XRANYgJVmjA8WkABvAqndBD8GttmPvVSazmt2WNxw8V4o8IsXJthDsW2Ynsv/si0ziPsHpnr1vnFTiV7C5AA==);strokeColor=#5488eb;strokeWidth=2;labelBackgroundColor=#FFFFFF;rounded=0;html=1;whiteSpace=wrap;fontFamily=Verdana;" parent="1" vertex="1">
          <mxGeometry x="610" y="290" width="-20" height="80" as="geometry" />
        </mxCell>
        <mxCell id="2MMG_qWxhIuf3SQ8Fz9g-26" value="&lt;font style=&quot;font-size: 11px; color: rgb(61, 100, 172); direction: ltr; letter-spacing: 0px; line-height: 120%; opacity: 1;&quot;&gt;1&lt;/font&gt;&lt;font style=&quot;font-size: 11px; color: rgb(61, 100, 172); direction: ltr; letter-spacing: 0px; line-height: 120%; opacity: 1;&quot;&gt;..1&lt;br&gt;&lt;/font&gt;" style="verticalAlign=middle;align=center;vsdxID=1190;fillColor=none;gradientColor=none;strokeColor=none;labelBackgroundColor=#FFFFFF;rounded=0;html=1;whiteSpace=wrap;fontFamily=Verdana;" parent="2MMG_qWxhIuf3SQ8Fz9g-25" vertex="1">
          <mxGeometry x="-47" y="43" width="30" height="24" as="geometry" />
        </mxCell>
        <mxCell id="2MMG_qWxhIuf3SQ8Fz9g-27" value="&lt;font style=&quot;font-size: 11px; color: rgb(61, 100, 172); direction: ltr; letter-spacing: 0px; line-height: 120%; opacity: 1;&quot;&gt;1..1&lt;/font&gt;&lt;font style=&quot;font-size: 11px; color: rgb(61, 100, 172); direction: ltr; letter-spacing: 0px; line-height: 120%; opacity: 1;&quot;&gt;&lt;br&gt;&lt;/font&gt;" style="verticalAlign=middle;align=center;vsdxID=1191;fillColor=none;gradientColor=none;strokeColor=none;labelBackgroundColor=#FFFFFF;rounded=0;html=1;whiteSpace=wrap;fontFamily=Verdana;" parent="2MMG_qWxhIuf3SQ8Fz9g-25" vertex="1">
          <mxGeometry x="-3" width="30" height="24" as="geometry" />
        </mxCell>
        <mxCell id="2MMG_qWxhIuf3SQ8Fz9g-17" value="&lt;font style=&quot;font-size: 11px; color: rgb(70, 114, 196); direction: ltr; letter-spacing: 0px; line-height: 120%; opacity: 1;&quot;&gt;1&lt;/font&gt;&lt;font style=&quot;font-size: 11px; color: rgb(70, 114, 196); direction: ltr; letter-spacing: 0px; line-height: 120%; opacity: 1;&quot;&gt;..&lt;/font&gt;&lt;font style=&quot;font-size: 11px; color: rgb(70, 114, 196); direction: ltr; letter-spacing: 0px; line-height: 120%; opacity: 1;&quot;&gt;1&lt;br&gt;&lt;/font&gt;" style="verticalAlign=middle;align=center;vsdxID=1091;fillColor=none;gradientColor=none;strokeColor=none;spacingTop=-3;spacingBottom=-3;spacingLeft=-3;spacingRight=-3;labelBackgroundColor=none;rounded=0;html=1;whiteSpace=wrap;fontFamily=Verdana;" parent="1" vertex="1">
          <mxGeometry x="609" y="448" width="19" height="13" as="geometry" />
        </mxCell>
        <mxCell id="2MMG_qWxhIuf3SQ8Fz9g-18" value="&lt;font style=&quot;font-size: 11px; color: rgb(70, 114, 196); direction: ltr; letter-spacing: 0px; line-height: 120%; opacity: 1;&quot;&gt;1..*&lt;br&gt;&lt;/font&gt;" style="verticalAlign=middle;align=center;vsdxID=1092;fillColor=none;gradientColor=none;strokeColor=none;spacingTop=-3;spacingBottom=-3;spacingLeft=-3;spacingRight=-3;labelBackgroundColor=none;rounded=0;html=1;whiteSpace=wrap;fontFamily=Verdana;" parent="1" vertex="1">
          <mxGeometry x="429" y="517" width="19" height="13" as="geometry" />
        </mxCell>
        <mxCell id="2" value="Connector" parent="0" />
        <mxCell id="3" value="Annotations" parent="0" />
        <mxCell id="4" value="Relationships" parent="0" />
      </root>
    </mxGraphModel>
  </diagram>
  <diagram name="Medication - unissued" id="WCcFTDj06iFnaEV3_w2E">
    <mxGraphModel dx="803" dy="694" grid="1" gridSize="10" guides="1" tooltips="1" connect="1" arrows="1" fold="1" page="1" pageScale="1" pageWidth="827" pageHeight="1169" math="0" shadow="0">
      <root>
        <mxCell id="0" />
        <mxCell id="1" parent="0" />
        <mxCell id="fwYUw0p6T5In0921yqst-16" style="edgeStyle=orthogonalEdgeStyle;rounded=0;orthogonalLoop=1;jettySize=auto;html=1;strokeColor=#4672C4;strokeWidth=2;fontFamily=Verdana;" parent="1" source="fwYUw0p6T5In0921yqst-18" target="fwYUw0p6T5In0921yqst-24" edge="1">
          <mxGeometry relative="1" as="geometry" />
        </mxCell>
        <mxCell id="fwYUw0p6T5In0921yqst-17" style="edgeStyle=orthogonalEdgeStyle;rounded=0;orthogonalLoop=1;jettySize=auto;html=1;strokeColor=#4672C4;strokeWidth=2;fontFamily=Verdana;" parent="1" source="fwYUw0p6T5In0921yqst-18" target="fwYUw0p6T5In0921yqst-20" edge="1">
          <mxGeometry relative="1" as="geometry" />
        </mxCell>
        <mxCell id="fwYUw0p6T5In0921yqst-18" value="&lt;font style=&quot;font-size: 11px; color: rgb(254, 255, 255); direction: ltr; letter-spacing: 0px; line-height: 120%; opacity: 1;&quot;&gt;Medication Statement&lt;br style=&quot;font-size: 11px;&quot;&gt;&lt;/font&gt;" style="verticalAlign=middle;align=center;vsdxID=1083;fillColor=#305497;gradientColor=none;shape=stencil(nZBLDoAgDERP0z3SIyjew0SURgSD+Lu9kMZoXLhwN9O+tukAlrNpJg1SzDH4QW/URgNYgZTkjA4UkwJUgGXng+6DX1zLfmoymdXo17xh5zmRJ6Q42BWCfc2oJfdAr+Yv+AP9Cb7OJ3H/2JG1HNGz/84klThPVCc=);strokeColor=#c8c8c8;spacingTop=-1;spacingBottom=-1;spacingLeft=-1;spacingRight=-1;labelBackgroundColor=none;rounded=0;html=1;whiteSpace=wrap;fontFamily=Verdana;fontSize=11;" parent="1" vertex="1">
          <mxGeometry x="540" y="230" width="120" height="60" as="geometry" />
        </mxCell>
        <mxCell id="fwYUw0p6T5In0921yqst-19" style="edgeStyle=orthogonalEdgeStyle;rounded=0;orthogonalLoop=1;jettySize=auto;html=1;strokeColor=#4672C4;strokeWidth=2;fontFamily=Verdana;" parent="1" source="fwYUw0p6T5In0921yqst-20" target="fwYUw0p6T5In0921yqst-24" edge="1">
          <mxGeometry relative="1" as="geometry" />
        </mxCell>
        <mxCell id="fwYUw0p6T5In0921yqst-20" value="&lt;font style=&quot;font-size: 11px; color: rgb(254, 255, 255); direction: ltr; letter-spacing: 0px; line-height: 120%; opacity: 1;&quot;&gt;MedicationRequest&lt;br style=&quot;font-size: 11px;&quot;&gt;(Intent = Plan)&lt;br style=&quot;font-size: 11px;&quot;&gt;&lt;/font&gt;" style="verticalAlign=middle;align=center;vsdxID=1084;fillColor=#305497;gradientColor=none;shape=stencil(nZBLDoAgDERP0z3SIyjew0SURgSD+Lu9kMZoXLhwN9O+tukAlrNpJg1SzDH4QW/URgNYgZTkjA4UkwJUgGXng+6DX1zLfmoymdXo17xh5zmRJ6Q42BWCfc2oJfdAr+Yv+AP9Cb7OJ3H/2JG1HNGz/84klThPVCc=);strokeColor=#c8c8c8;spacingTop=-1;spacingBottom=-1;spacingLeft=-1;spacingRight=-1;labelBackgroundColor=none;rounded=0;html=1;whiteSpace=wrap;fontFamily=Verdana;fontSize=11;" parent="1" vertex="1">
          <mxGeometry x="300" y="370" width="120" height="60" as="geometry" />
        </mxCell>
        <mxCell id="fwYUw0p6T5In0921yqst-24" value="&lt;font style=&quot;font-size: 11px; color: rgb(254, 255, 255); direction: ltr; letter-spacing: 0px; line-height: 120%; opacity: 1;&quot;&gt;Medication&lt;br style=&quot;font-size: 11px;&quot;&gt;&lt;/font&gt;" style="verticalAlign=middle;align=center;vsdxID=1089;fillColor=#305497;gradientColor=none;shape=stencil(nZBLDoAgDERP0z3SIyjew0SURgSD+Lu9kMZoXLhwN9O+tukAlrNpJg1SzDH4QW/URgNYgZTkjA4UkwJUgGXng+6DX1zLfmoymdXo17xh5zmRJ6Q42BWCfc2oJfdAr+Yv+AP9Cb7OJ3H/2JG1HNGz/84klThPVCc=);strokeColor=#c8c8c8;spacingTop=-1;spacingBottom=-1;spacingLeft=-1;spacingRight=-1;labelBackgroundColor=none;rounded=0;html=1;whiteSpace=wrap;fontFamily=Verdana;fontSize=11;" parent="1" vertex="1">
          <mxGeometry x="540" y="370" width="120" height="60" as="geometry" />
        </mxCell>
        <mxCell id="fwYUw0p6T5In0921yqst-25" style="vsdxID=1086;fillColor=none;gradientColor=none;shape=stencil(nY9LDoAgDERP0z3SI/i5B4koRAWC+Lu9NI3xs3Q3075ppoDlbFTQIMWcoh/0ZttkACuQ0jqjo01ZAdaAZeej7qNfXMs+KCJJTX6lCzvnBCWkONgVgn3D6GjdA72Wv+AXmsXdh1957r7d84j/xvoE);strokeColor=#5488eb;strokeWidth=2;labelBackgroundColor=#ffffff;rounded=0;html=1;whiteSpace=wrap;fontFamily=Verdana;" parent="1" vertex="1">
          <mxGeometry x="540" y="370" width="-180" height="-110" as="geometry" />
        </mxCell>
        <mxCell id="fwYUw0p6T5In0921yqst-26" value="&lt;font style=&quot;font-size: 11px; color: rgb(70, 114, 196); direction: ltr; letter-spacing: 0px; line-height: 120%; opacity: 1;&quot;&gt;1&lt;/font&gt;&lt;font style=&quot;font-size: 11px; color: rgb(70, 114, 196); direction: ltr; letter-spacing: 0px; line-height: 120%; opacity: 1;&quot;&gt;..&lt;/font&gt;&lt;font style=&quot;font-size: 11px; color: rgb(70, 114, 196); direction: ltr; letter-spacing: 0px; line-height: 120%; opacity: 1;&quot;&gt;1&lt;br&gt;&lt;/font&gt;" style="verticalAlign=middle;align=center;vsdxID=1087;fillColor=none;gradientColor=none;strokeColor=none;spacingTop=-3;spacingBottom=-3;spacingLeft=-3;spacingRight=-3;labelBackgroundColor=none;rounded=0;html=1;whiteSpace=wrap;fontFamily=Verdana;" parent="fwYUw0p6T5In0921yqst-25" vertex="1">
          <mxGeometry x="-32" y="-103" width="19" height="13" as="geometry" />
        </mxCell>
        <mxCell id="fwYUw0p6T5In0921yqst-27" value="&lt;font style=&quot;font-size: 11px; color: rgb(70, 114, 196); direction: ltr; letter-spacing: 0px; line-height: 120%; opacity: 1;&quot;&gt;1&lt;/font&gt;&lt;font style=&quot;font-size: 11px; color: rgb(70, 114, 196); direction: ltr; letter-spacing: 0px; line-height: 120%; opacity: 1;&quot;&gt;..&lt;/font&gt;&lt;font style=&quot;font-size: 11px; color: rgb(70, 114, 196); direction: ltr; letter-spacing: 0px; line-height: 120%; opacity: 1;&quot;&gt;1&lt;br&gt;&lt;/font&gt;" style="verticalAlign=middle;align=center;vsdxID=1088;fillColor=none;gradientColor=none;strokeColor=none;spacingTop=-3;spacingBottom=-3;spacingLeft=-3;spacingRight=-3;labelBackgroundColor=none;rounded=0;html=1;whiteSpace=wrap;fontFamily=Verdana;" parent="fwYUw0p6T5In0921yqst-25" vertex="1">
          <mxGeometry x="-170" y="-32" width="19" height="13" as="geometry" />
        </mxCell>
        <mxCell id="fwYUw0p6T5In0921yqst-28" style="vsdxID=1090;fillColor=none;gradientColor=none;shape=stencil(fY9LDoAgDERP0z3SI/i5BwkoRAWC+Lu9kMZojLqbad9MWsBy0sIr4GyKwfVqNTJqwAo4N1arYGJSgDVg2bqguuBmK8l7kcmsRrfkho1yLCc428kVjHxD6GDsJ/oDni2vaBLXLfTGffe8O43oZ6wP);strokeColor=#5488eb;strokeWidth=2;labelBackgroundColor=#ffffff;rounded=0;html=1;whiteSpace=wrap;container=0;fontFamily=Verdana;" parent="1" vertex="1">
          <mxGeometry x="600" y="549" width="-180" height="-120" as="geometry" />
        </mxCell>
        <mxCell id="fwYUw0p6T5In0921yqst-29" style="vsdxID=1093;fillColor=none;gradientColor=none;shape=stencil(fY9LDoAgDERP0z3SeALFe5iI0qhAEH+3F9KFxIW7mfa1nQI2m+m9Bim2GNysTxqiAWxBSrJGB4pJASrAZnRBT8HtdmDv+0xmtbojb7h4TuQJKW52NduOyYVsQVbij03iPcHpyt43TirxK6ge);strokeColor=#5488eb;strokeWidth=2;labelBackgroundColor=#FFFFFF;rounded=0;html=1;whiteSpace=wrap;fontFamily=Verdana;" parent="1" vertex="1">
          <mxGeometry x="536" y="386" width="-120" height="20" as="geometry" />
        </mxCell>
        <mxCell id="fwYUw0p6T5In0921yqst-30" value="&lt;font style=&quot;font-size: 11px; color: rgb(61, 100, 172); direction: ltr; letter-spacing: 0px; line-height: 120%; opacity: 1;&quot;&gt;1&lt;/font&gt;&lt;font style=&quot;font-size: 11px; color: rgb(61, 100, 172); direction: ltr; letter-spacing: 0px; line-height: 120%; opacity: 1;&quot;&gt;..1&lt;br&gt;&lt;/font&gt;" style="verticalAlign=middle;align=center;vsdxID=1094;fillColor=none;gradientColor=none;strokeColor=none;labelBackgroundColor=#FFFFFF;rounded=0;html=1;whiteSpace=wrap;fontFamily=Verdana;" parent="fwYUw0p6T5In0921yqst-29" vertex="1">
          <mxGeometry x="-35" y="14" width="30" height="24" as="geometry" />
        </mxCell>
        <mxCell id="fwYUw0p6T5In0921yqst-31" value="&lt;font style=&quot;font-size: 11px; color: rgb(61, 100, 172); direction: ltr; letter-spacing: 0px; line-height: 120%; opacity: 1;&quot;&gt;1..1&lt;/font&gt;&lt;font style=&quot;font-size: 11px; color: rgb(61, 100, 172); direction: ltr; letter-spacing: 0px; line-height: 120%; opacity: 1;&quot;&gt;&lt;br&gt;&lt;/font&gt;" style="verticalAlign=middle;align=center;vsdxID=1095;fillColor=none;gradientColor=none;strokeColor=none;labelBackgroundColor=#FFFFFF;rounded=0;html=1;whiteSpace=wrap;fontFamily=Verdana;" parent="fwYUw0p6T5In0921yqst-29" vertex="1">
          <mxGeometry x="-108" y="-13" width="30" height="24" as="geometry" />
        </mxCell>
        <mxCell id="fwYUw0p6T5In0921yqst-32" style="vsdxID=1100;fillColor=none;gradientColor=none;shape=stencil(dY9JDoAgDEVP0z3SeAKHe5CI0qhAEKfbC+nCIXH3f/va/gJWi1FegxRLDG7UO3XRANYgJVmjA8WkABvAqndBD8GttmPvVSazmt2WNxw8V4o8IsXJthDsW2Ynsv/si0ziPsHpnr1vnFTiV7C5AA==);strokeColor=#5488eb;strokeWidth=2;labelBackgroundColor=#ffffff;rounded=0;html=1;whiteSpace=wrap;fontFamily=Verdana;" parent="1" vertex="1">
          <mxGeometry x="350" y="510" width="20" height="-80" as="geometry" />
        </mxCell>
        <mxCell id="fwYUw0p6T5In0921yqst-35" style="vsdxID=1189;fillColor=none;gradientColor=none;shape=stencil(dY9JDoAgDEVP0z3SeAKHe5CI0qhAEKfbC+nCIXH3f/va/gJWi1FegxRLDG7UO3XRANYgJVmjA8WkABvAqndBD8GttmPvVSazmt2WNxw8V4o8IsXJthDsW2Ynsv/si0ziPsHpnr1vnFTiV7C5AA==);strokeColor=#5488eb;strokeWidth=2;labelBackgroundColor=#FFFFFF;rounded=0;html=1;whiteSpace=wrap;fontFamily=Verdana;" parent="1" vertex="1">
          <mxGeometry x="610" y="290" width="-20" height="80" as="geometry" />
        </mxCell>
        <mxCell id="fwYUw0p6T5In0921yqst-36" value="&lt;font style=&quot;font-size: 11px; color: rgb(61, 100, 172); direction: ltr; letter-spacing: 0px; line-height: 120%; opacity: 1;&quot;&gt;1&lt;/font&gt;&lt;font style=&quot;font-size: 11px; color: rgb(61, 100, 172); direction: ltr; letter-spacing: 0px; line-height: 120%; opacity: 1;&quot;&gt;..1&lt;br&gt;&lt;/font&gt;" style="verticalAlign=middle;align=center;vsdxID=1190;fillColor=none;gradientColor=none;strokeColor=none;labelBackgroundColor=#FFFFFF;rounded=0;html=1;whiteSpace=wrap;fontFamily=Verdana;" parent="fwYUw0p6T5In0921yqst-35" vertex="1">
          <mxGeometry x="-47" y="43" width="30" height="24" as="geometry" />
        </mxCell>
        <mxCell id="fwYUw0p6T5In0921yqst-37" value="&lt;font style=&quot;font-size: 11px; color: rgb(61, 100, 172); direction: ltr; letter-spacing: 0px; line-height: 120%; opacity: 1;&quot;&gt;1..1&lt;/font&gt;&lt;font style=&quot;font-size: 11px; color: rgb(61, 100, 172); direction: ltr; letter-spacing: 0px; line-height: 120%; opacity: 1;&quot;&gt;&lt;br&gt;&lt;/font&gt;" style="verticalAlign=middle;align=center;vsdxID=1191;fillColor=none;gradientColor=none;strokeColor=none;labelBackgroundColor=#FFFFFF;rounded=0;html=1;whiteSpace=wrap;fontFamily=Verdana;" parent="fwYUw0p6T5In0921yqst-35" vertex="1">
          <mxGeometry x="-3" width="30" height="24" as="geometry" />
        </mxCell>
        <mxCell id="2" value="Connector" parent="0" />
        <mxCell id="3" value="Annotations" parent="0" />
        <mxCell id="4" value="Relationships" parent="0" />
      </root>
    </mxGraphModel>
  </diagram>
</mxfile>
